<svg width="20" height="20" viewBox="0 0 20 20" fill="none" xmlns="http://www.w3.org/2000/svg">
<path d="M3.60786 10.4416C3.36379 10.1975 3.36379 9.80175 3.60786 9.55767L9.00786 4.15767C9.25194 3.91359 9.64767 3.91359 9.89175 4.15767C10.1358 4.40175 10.1358 4.79747 9.89175 5.04155L4.93369 9.99961L9.89175 14.9577C10.1358 15.2017 10.1358 15.5975 9.89175 15.8416C9.64767 16.0856 9.25194 16.0856 9.00786 15.8416L3.60786 10.4416Z" fill="#8E8B86"/>
<path d="M14.5079 4.15767L9.10786 9.55767C8.86379 9.80175 8.86379 10.1975 9.10786 10.4416L14.5079 15.8416C14.7519 16.0856 15.1477 16.0856 15.3917 15.8416C15.6358 15.5975 15.6358 15.2017 15.3917 14.9577L10.4337 9.99961L15.3917 5.04155C15.6358 4.79747 15.6358 4.40175 15.3917 4.15767C15.1477 3.91359 14.7519 3.91359 14.5079 4.15767Z" fill="#8E8B86"/>
</svg>
