<svg width="16" height="16" viewBox="0 0 16 16" fill="none" xmlns="http://www.w3.org/2000/svg">
<path d="M6.16214 3.03853C5.91806 2.79445 5.52233 2.79445 5.27825 3.03853L1.75825 6.55853C1.51418 6.8026 1.51418 7.19833 1.75825 7.44241L5.27825 10.9624C5.52233 11.2065 5.91806 11.2065 6.16214 10.9624C6.40621 10.7183 6.40621 10.3226 6.16214 10.0785L3.70915 7.62554L11.2001 7.62554C12.2909 7.62554 13.1752 8.50978 13.1752 9.60054C13.1752 10.6913 12.2909 11.5755 11.2002 11.5755H10.0642C9.71897 11.5755 9.43915 11.8554 9.43915 12.2005C9.43915 12.5457 9.71897 12.8255 10.0641 12.8255H11.2002C12.9813 12.8255 14.4251 11.3817 14.4251 9.60054C14.4252 7.81942 12.9813 6.37554 11.2001 6.37554L3.70901 6.37554L6.16214 3.92241C6.40621 3.67833 6.40621 3.2826 6.16214 3.03853Z" fill="#8E8B86"/>
</svg>
