<svg width="22" height="22" viewBox="0 0 22 22" fill="none" xmlns="http://www.w3.org/2000/svg">
<path d="M18.6316 10.8386C18.6315 7.57069 15.8391 4.74527 11.4322 4.57158L11.0004 4.56299C6.34459 4.56299 3.36813 7.46517 3.36804 10.8386C3.36804 12.4197 4.0095 13.8655 5.14695 14.9732C5.30705 15.1295 5.38133 15.3539 5.34568 15.5748C5.19861 16.4852 4.90003 17.4406 4.36599 18.356C5.58508 18.2131 6.69715 17.6805 7.67673 16.8778L7.74548 16.8284C7.90999 16.7244 8.11229 16.6947 8.30193 16.7489C9.12132 16.9837 10.0258 17.1152 11.0004 17.1152L11.4322 17.1066C15.839 16.9329 18.6316 14.1066 18.6316 10.8386ZM20.0066 10.8386C20.0066 15.0218 16.4489 18.2809 11.4848 18.4806L11.0004 18.4902C10.0332 18.4902 9.11821 18.374 8.26755 18.1615C6.78366 19.2858 4.98374 19.9422 2.95876 19.732C2.70365 19.7056 2.48471 19.5387 2.3905 19.3002C2.29643 19.0614 2.34323 18.789 2.51189 18.5955C3.29544 17.6963 3.71756 16.6851 3.92449 15.6897C2.69706 14.3721 1.99304 12.6825 1.99304 10.8386C1.99314 6.52027 5.78506 3.18799 11.0004 3.18799L11.4848 3.19766C16.4487 3.39726 20.0065 6.65533 20.0066 10.8386Z" fill="#8E8B86"/>
</svg>
