<svg width="22" height="22" viewBox="0 0 22 22" fill="none" xmlns="http://www.w3.org/2000/svg">
<path d="M18.451 4.77531L17.8034 5.42262L16.5829 4.20272L17.2383 3.54873C17.5703 3.21683 18.1189 3.21683 18.451 3.54873C18.783 3.88063 18.783 4.42898 18.451 4.76088V4.77531Z" fill="#5F5E59"/>
<path d="M9.51461 13.7077L17.0121 6.21353L15.791 4.993L8.28749 12.4811C8.17199 12.5966 8.08537 12.7553 8.02762 12.914L7.71001 13.9386C7.65227 14.155 7.85438 14.3571 8.0565 14.2849L9.08151 13.9674C9.24031 13.9242 9.38468 13.8376 9.51461 13.7077Z" fill="#5F5E59"/>
<path d="M4.8125 6.8748C4.8125 5.73572 5.73591 4.8123 6.875 4.8123H12.1C12.4797 4.8123 12.7875 4.5045 12.7875 4.1248C12.7875 3.74511 12.4797 3.4373 12.1 3.4373H6.875C4.97652 3.4373 3.4375 4.97633 3.4375 6.8748V15.1248C3.4375 17.0233 4.97652 18.5623 6.875 18.5623H15.125C17.0235 18.5623 18.5625 17.0233 18.5625 15.1248V9.89981C18.5625 9.52011 18.2547 9.2123 17.875 9.2123C17.4953 9.2123 17.1875 9.52011 17.1875 9.89981V15.1248C17.1875 16.2639 16.2641 17.1873 15.125 17.1873H6.875C5.73591 17.1873 4.8125 16.2639 4.8125 15.1248V6.8748Z" fill="#5F5E59"/>
</svg>
