<svg width="22" height="22" viewBox="0 0 22 22" fill="none" xmlns="http://www.w3.org/2000/svg">
<path d="M10.4905 9.72683C10.4905 10.1487 10.1485 10.4907 9.72663 10.4907C9.30475 10.4907 8.96274 10.1487 8.96274 9.72683C8.96274 9.30495 9.30475 8.96295 9.72663 8.96295C10.1485 8.96295 10.4905 9.30495 10.4905 9.72683Z" fill="#8E8B86"/>
<path d="M9.72663 13.0371C10.1485 13.0371 10.4905 12.6951 10.4905 12.2732C10.4905 11.8513 10.1485 11.5093 9.72663 11.5093C9.30475 11.5093 8.96274 11.8513 8.96274 12.2732C8.96274 12.6951 9.30475 13.0371 9.72663 13.0371Z" fill="#8E8B86"/>
<path d="M10.4905 14.8194C10.4905 15.2413 10.1485 15.5833 9.72663 15.5833C9.30475 15.5833 8.96274 15.2413 8.96274 14.8194C8.96274 14.3976 9.30475 14.0555 9.72663 14.0555C10.1485 14.0555 10.4905 14.3976 10.4905 14.8194Z" fill="#8E8B86"/>
<path d="M12.2731 10.4907C12.695 10.4907 13.037 10.1487 13.037 9.72683C13.037 9.30495 12.695 8.96295 12.2731 8.96295C11.8512 8.96295 11.5092 9.30495 11.5092 9.72683C11.5092 10.1487 11.8512 10.4907 12.2731 10.4907Z" fill="#8E8B86"/>
<path d="M13.037 12.2732C13.037 12.6951 12.695 13.0371 12.2731 13.0371C11.8512 13.0371 11.5092 12.6951 11.5092 12.2732C11.5092 11.8513 11.8512 11.5093 12.2731 11.5093C12.695 11.5093 13.037 11.8513 13.037 12.2732Z" fill="#8E8B86"/>
<path d="M12.2731 15.5833C12.695 15.5833 13.037 15.2413 13.037 14.8194C13.037 14.3976 12.695 14.0555 12.2731 14.0555C11.8512 14.0555 11.5092 14.3976 11.5092 14.8194C11.5092 15.2413 11.8512 15.5833 12.2731 15.5833Z" fill="#8E8B86"/>
<path d="M15.5834 9.72683C15.5834 10.1487 15.2414 10.4907 14.8195 10.4907C14.3976 10.4907 14.0556 10.1487 14.0556 9.72683C14.0556 9.30495 14.3976 8.96295 14.8195 8.96295C15.2414 8.96295 15.5834 9.30495 15.5834 9.72683Z" fill="#8E8B86"/>
<path d="M7.18073 13.0371C7.60262 13.0371 7.94462 12.6951 7.94462 12.2732C7.94462 11.8513 7.60262 11.5093 7.18073 11.5093C6.75885 11.5093 6.41685 11.8513 6.41685 12.2732C6.41685 12.6951 6.75885 13.0371 7.18073 13.0371Z" fill="#8E8B86"/>
<path d="M7.94462 14.8194C7.94462 15.2413 7.60262 15.5833 7.18073 15.5833C6.75885 15.5833 6.41685 15.2413 6.41685 14.8194C6.41685 14.3976 6.75885 14.0555 7.18073 14.0555C7.60262 14.0555 7.94462 14.3976 7.94462 14.8194Z" fill="#8E8B86"/>
<path d="M14.8195 13.0371C15.2414 13.0371 15.5834 12.6951 15.5834 12.2732C15.5834 11.8513 15.2414 11.5093 14.8195 11.5093C14.3976 11.5093 14.0556 11.8513 14.0556 12.2732C14.0556 12.6951 14.3976 13.0371 14.8195 13.0371Z" fill="#8E8B86"/>
<path d="M5.775 3.4375C4.48403 3.4375 3.4375 4.48403 3.4375 5.775V16.225C3.4375 17.516 4.48403 18.5625 5.775 18.5625H16.225C17.516 18.5625 18.5625 17.516 18.5625 16.225V5.775C18.5625 4.48403 17.516 3.4375 16.225 3.4375H5.775ZM4.8125 7.49637H17.1875V16.225C17.1875 16.7566 16.7566 17.1875 16.225 17.1875H5.775C5.24343 17.1875 4.8125 16.7566 4.8125 16.225V7.49637Z" fill="#8E8B86"/>
</svg>
