<svg width="22" height="22" viewBox="0 0 22 22" fill="none" xmlns="http://www.w3.org/2000/svg">
<path d="M9.98793 3.67495C10.5977 3.25614 11.4023 3.25614 12.0121 3.67495L18.4746 8.11402C18.96 8.44744 19.25 8.99853 19.25 9.58741V16.2249C19.25 17.5158 18.2035 18.5624 16.9125 18.5624H13.9254C12.9382 18.5624 12.1379 17.7621 12.1379 16.7749V12.3037H9.86207V16.7749C9.86207 17.7621 9.06178 18.5624 8.07457 18.5624H5.0875C3.79653 18.5624 2.75 17.5158 2.75 16.2249V9.58741C2.75 8.99853 3.04004 8.44744 3.52543 8.11402L9.98793 3.67495ZM11.2336 4.80833C11.0928 4.71168 10.9072 4.71168 10.7664 4.80833L4.30395 9.2474C4.19193 9.32434 4.125 9.45151 4.125 9.58741V16.2249C4.125 16.7564 4.55593 17.1874 5.0875 17.1874H8.07457C8.30239 17.1874 8.48707 17.0027 8.48707 16.7749V12.1662C8.48707 11.4828 9.04112 10.9287 9.72457 10.9287H12.2754C12.9589 10.9287 13.5129 11.4828 13.5129 12.1662V16.7749C13.5129 17.0027 13.6976 17.1874 13.9254 17.1874H16.9125C17.4441 17.1874 17.875 16.7564 17.875 16.2249V9.58741C17.875 9.45151 17.8081 9.32434 17.6961 9.2474L11.2336 4.80833Z" fill="#383836"/>
</svg>
