<svg width="22" height="22" viewBox="0 0 22 22" fill="none" xmlns="http://www.w3.org/2000/svg">
<path d="M6.93305 3.9873C6.1515 3.9873 5.42166 4.3779 4.98814 5.02819L2.45508 8.82777C2.1991 9.21175 2.0625 9.6629 2.0625 10.1244V15.6748C2.0625 16.9658 3.10904 18.0123 4.4 18.0123H17.6C18.891 18.0123 19.9375 16.9658 19.9375 15.6748V10.1244C19.9375 9.6629 19.8009 9.21175 19.5449 8.82777L17.0119 5.02819C16.5783 4.3779 15.8485 3.9873 15.0669 3.9873H6.93305ZM6.1322 5.79091C6.31072 5.52314 6.61124 5.3623 6.93305 5.3623H15.0669C15.3888 5.3623 15.6893 5.52314 15.8678 5.79091L18.4008 9.59049C18.4371 9.64481 18.4675 9.7024 18.4918 9.7623H13.3203C13.138 9.7623 12.9631 9.83474 12.8342 9.96367C12.7052 10.0926 12.6328 10.2675 12.6328 10.4498V10.973C12.6328 11.8748 11.9018 12.6058 11 12.6058C10.0982 12.6058 9.36719 11.8748 9.36719 10.973V10.4498C9.36719 10.2675 9.29475 10.0926 9.16582 9.96367C9.03689 9.83474 8.86202 9.7623 8.67969 9.7623L3.5082 9.76231C3.53252 9.70241 3.56293 9.64481 3.59915 9.59049L6.1322 5.79091ZM3.4375 11.1373L7.9966 11.1373C8.0819 12.7221 9.39395 13.9808 11 13.9808C12.606 13.9808 13.9181 12.7221 14.0034 11.1373H18.5625V15.6748C18.5625 16.2064 18.1316 16.6373 17.6 16.6373H4.4C3.86843 16.6373 3.4375 16.2064 3.4375 15.6748V11.1373Z" fill="#8E8B86"/>
</svg>
