<svg width="20" height="20" viewBox="0 0 20 20" fill="none" xmlns="http://www.w3.org/2000/svg">
<path d="M3 7.375H9.82876C10.1063 8.45327 11.0851 9.25 12.25 9.25C13.4149 9.25 14.3937 8.45327 14.6712 7.375H17C17.3452 7.375 17.625 7.09518 17.625 6.75C17.625 6.40482 17.3452 6.125 17 6.125H14.6712C14.3937 5.04673 13.4149 4.25 12.25 4.25C11.0851 4.25 10.1063 5.04673 9.82876 6.125H3C2.65482 6.125 2.375 6.40482 2.375 6.75C2.375 7.09518 2.65482 7.375 3 7.375ZM12.25 5.5C12.9404 5.5 13.5 6.05964 13.5 6.75C13.5 7.44036 12.9404 8 12.25 8C11.5596 8 11 7.44036 11 6.75C11 6.05964 11.5596 5.5 12.25 5.5Z" fill="rgba(55, 53, 47, 0.5)"/>
<path fill-rule="evenodd" clip-rule="evenodd" d="M7.75 15.75C8.9149 15.75 9.89371 14.9533 10.1712 13.875L17 13.875C17.3452 13.875 17.625 13.5952 17.625 13.25C17.625 12.9048 17.3452 12.625 17 12.625H10.1712C9.89371 11.5467 8.9149 10.75 7.75 10.75C6.5851 10.75 5.60629 11.5467 5.32876 12.625H3C2.65482 12.625 2.375 12.9048 2.375 13.25C2.375 13.5952 2.65482 13.875 3 13.875H5.32876C5.60629 14.9533 6.5851 15.75 7.75 15.75ZM7.75 14.5C8.44036 14.5 9 13.9404 9 13.25C9 12.5596 8.44036 12 7.75 12C7.05964 12 6.5 12.5596 6.5 13.25C6.5 13.9404 7.05964 14.5 7.75 14.5Z" fill="rgba(55, 53, 47, 0.5)"/>
</svg>
