<svg width="20" height="20" viewBox="0 0 20 20" fill="none" xmlns="http://www.w3.org/2000/svg">
<path d="M8 1.625C10.868 1.625 13.2911 3.51957 14.0918 6.125H15.75C16.9236 6.125 17.875 7.0764 17.875 8.25V15.75C17.875 16.9236 16.9236 17.875 15.75 17.875H8.25C7.0764 17.875 6.125 16.9236 6.125 15.75V14.0918C3.51957 13.2911 1.625 10.868 1.625 8C1.625 4.47918 4.47918 1.625 8 1.625ZM8.25 7.375C7.76675 7.375 7.375 7.76675 7.375 8.25V15.75C7.375 16.2332 7.76675 16.625 8.25 16.625H15.75C16.2332 16.625 16.625 16.2332 16.625 15.75V8.25C16.625 7.76675 16.2332 7.375 15.75 7.375H8.25ZM8 2.875C5.16954 2.875 2.875 5.16954 2.875 8C2.875 10.1685 4.22222 12.0211 6.125 12.7695V8.25C6.125 7.07639 7.0764 6.125 8.25 6.125H12.7705C12.0221 4.22205 10.1686 2.875 8 2.875Z" fill="#383836"/>
</svg>
